<?xml version="1.0" encoding="utf-8"?>
<!-- Generator: Adobe Illustrator 22.0.1, SVG Export Plug-In . SVG Version: 6.00 Build 0)  -->
<svg version="1.1" id="Слой_1" focusable="false"
	 xmlns="http://www.w3.org/2000/svg" xmlns:xlink="http://www.w3.org/1999/xlink" x="0px" y="0px" viewBox="0 0 384 512"
	 style="enable-background:new 0 0 384 512;" xml:space="preserve">
<style type="text/css">
	.st0{fill:#D4B830;}
</style>
<path class="st0" d="M0,40l35.6,388.4L191.7,472l157-43.9l0.7-7.5h0.2v-2.4L384,40.2L0,40z M209.1,289.1l-1.6-165.2l123-0.6
	l-3.3,45.4l-81.5,0.3v66.4L322,227l-10.3,124.4l0,0L208.2,378l-0.8-45.1l74.9-19.7l1-36.8L209.1,289.1z M192.3,74.6L192.3,74.6
	L192.3,74.6L192.3,74.6z M64.9,302.4l74.1,20l0.5-199.1h38.2V378L65,347.9L64.9,302.4z"/>
</svg>
