<?xml version="1.0" encoding="utf-8"?>
<!-- Generator: Adobe Illustrator 22.0.1, SVG Export Plug-In . SVG Version: 6.00 Build 0)  -->
<svg version="1.1" id="Слой_1" focusable="false"
	 xmlns="http://www.w3.org/2000/svg" xmlns:xlink="http://www.w3.org/1999/xlink" x="0px" y="0px" viewBox="0 0 448 393"
	 style="enable-background:new 0 0 448 393;" xml:space="preserve">
<style type="text/css">
	.st0{fill:#F9FBF3;}
</style>
<path class="st0" d="M16,74h416c8.8,0,16-7.2,16-16V18c0-8.8-7.2-16-16-16H16C7.2,2,0,9.2,0,18v40C0,66.8,7.2,74,16,74z M16,234h416
	c8.8,0,16-7.2,16-16v-40c0-8.8-7.2-16-16-16H16c-8.8,0-16,7.2-16,16v40C0,226.8,7.2,234,16,234z M16,394h416c8.8,0,16-7.2,16-16v-40
	c0-8.8-7.2-16-16-16H16c-8.8,0-16,7.2-16,16v40C0,386.8,7.2,394,16,394z"/>
</svg>
