<?xml version="1.0" encoding="utf-8"?>
<!-- Generator: Adobe Illustrator 22.0.1, SVG Export Plug-In . SVG Version: 6.00 Build 0)  -->
<svg version="1.1" id="Слой_2_1_" xmlns="http://www.w3.org/2000/svg" xmlns:xlink="http://www.w3.org/1999/xlink" x="0px"
	 y="0px" viewBox="0 0 1000 1000" style="enable-background:new 0 0 1000 1000;" xml:space="preserve">
<style type="text/css">
	.st0{opacity:0.5;fill:#B646F0;enable-background:new    ;}
</style>
<path class="st0" d="M345.7,156.1l18-18l-5.8-5.8l-8.3,8.3c-0.4,0.4-1.1,0.4-1.4,0l0,0l-1.6-1.6c-0.4-0.4-0.4-1.1,0-1.6l8.3-8.3
	l-4.6-4.6c-1.7-1.7-4.3-1.7-6,0l-12,12c-1.7,1.7-1.7,4.3,0,6L345.7,156.1L345.7,156.1z M397.6,140.4c2.6-2.6,2.6-6.6,0-9.1l-6-6
	c-2.6-2.6-6.6-2.6-9.1,0l-6.1,6.1l15.1,15.1L397.6,140.4L397.6,140.4z M373.4,134.5l-39.6,39.6l-2.6,14.4c-0.3,2,1.3,3.6,3.3,3.3
	l14.4-2.6l39.6-39.6L373.4,134.5z M398.3,172.6l-4.6-4.6l-8.3,8.3c-0.4,0.4-1.1,0.4-1.6,0l-1.6-1.6c-0.4-0.4-0.4-1.1,0-1.6l8.3-8.3
	l-5.8-5.8l-18,18l13.4,13.4c1.7,1.7,4.3,1.7,6,0l12-12C399.9,177,399.9,174.3,398.3,172.6L398.3,172.6z"/>
<path class="st0" d="M586.9,605l18-18l-5.8-5.8l-8.3,8.3c-0.4,0.4-1.1,0.4-1.4,0l0,0l-1.6-1.6c-0.4-0.4-0.4-1.1,0-1.6l8.3-8.3
	l-4.6-4.6c-1.7-1.7-4.3-1.7-6,0l-12,12c-1.7,1.7-1.7,4.3,0,6L586.9,605L586.9,605z M638.8,589.3c2.6-2.6,2.6-6.6,0-9.1l-6-6
	c-2.6-2.6-6.6-2.6-9.1,0l-6.1,6.1l15.1,15.1L638.8,589.3L638.8,589.3z M614.6,583.5L575,623.1l-2.6,14.4c-0.3,2,1.3,3.6,3.3,3.3
	l14.4-2.6l39.6-39.6L614.6,583.5z M639.5,621.5L635,617l-8.3,8.3c-0.4,0.4-1.1,0.4-1.6,0l-1.6-1.6c-0.4-0.4-0.4-1.1,0-1.6l8.3-8.3
	L626,608l-18,18l13.4,13.4c1.7,1.7,4.3,1.7,6,0l12-12C641.1,626,641.1,623.3,639.5,621.5L639.5,621.5z"/>
<path class="st0" d="M621.3,246.8l18-18l-5.8-5.8l-8.3,8.3c-0.4,0.4-1.1,0.4-1.4,0l0,0l-1.6-1.6c-0.4-0.4-0.4-1.1,0-1.6l8.3-8.3
	l-4.6-4.6c-1.7-1.7-4.3-1.7-6,0l-12,12c-1.7,1.7-1.7,4.3,0,6L621.3,246.8L621.3,246.8z M673.2,231.1c2.6-2.6,2.6-6.6,0-9.1l-6-6
	c-2.6-2.6-6.6-2.6-9.1,0l-6.1,6.1l15.1,15.1L673.2,231.1L673.2,231.1z M649,225.3l-39.6,39.6l-2.6,14.4c-0.3,2,1.3,3.6,3.3,3.3
	l14.4-2.6l39.6-39.6L649,225.3z M673.9,263.3l-4.6-4.6l-8.3,8.3c-0.4,0.4-1.1,0.4-1.6,0l-1.6-1.6c-0.4-0.4-0.4-1.1,0-1.6l8.3-8.3
	l-5.8-5.8l-18,18l13.4,13.4c1.7,1.7,4.3,1.7,6,0l12-12C675.5,267.8,675.5,265.1,673.9,263.3L673.9,263.3z"/>
<path class="st0" d="M379.1,767.9l18-18l-5.8-5.8l-8.3,8.3c-0.4,0.4-1.1,0.4-1.4,0l0,0l-1.6-1.6c-0.4-0.4-0.4-1.1,0-1.6l8.3-8.3
	l-4.6-4.6c-1.7-1.7-4.3-1.7-6,0l-12,12c-1.7,1.7-1.7,4.3,0,6L379.1,767.9L379.1,767.9z M431,752.2c2.6-2.6,2.6-6.6,0-9.1l-6-6
	c-2.6-2.6-6.6-2.6-9.1,0l-6.1,6.1l15.1,15.1L431,752.2L431,752.2z M406.8,746.3L367.1,786l-2.6,14.4c-0.3,2,1.3,3.6,3.3,3.3
	l14.4-2.6l39.6-39.6L406.8,746.3z M431.7,784.4l-4.6-4.6l-8.3,8.3c-0.4,0.4-1.1,0.4-1.6,0l-1.6-1.6c-0.4-0.4-0.4-1.1,0-1.6l8.3-8.3
	l-5.8-5.8l-18,18l13.4,13.4c1.7,1.7,4.3,1.7,6,0l12-12C433.3,788.8,433.3,786.1,431.7,784.4L431.7,784.4z"/>
<path class="st0" d="M780.7,969.6l14.8-14.8l-4.8-4.8l-6.8,6.8c-0.4,0.4-0.9,0.4-1.2,0l0,0l-1.3-1.3c-0.4-0.4-0.4-0.9,0-1.3l6.8-6.8
	l-3.8-3.8c-1.4-1.4-3.5-1.4-4.9,0l-9.9,9.9c-1.4,1.4-1.4,3.5,0,4.9L780.7,969.6L780.7,969.6z M823.4,956.7c2.1-2.1,2.1-5.4,0-7.5
	l-4.9-4.9c-2.1-2.1-5.4-2.1-7.5,0l-5,5l12.4,12.4L823.4,956.7L823.4,956.7z M803.4,951.9l-32.6,32.6l-2.1,11.9
	c-0.2,1.6,1.1,2.9,2.7,2.7l11.9-2.1l32.6-32.6L803.4,951.9z M823.9,983.3l-3.8-3.8l-6.8,6.8c-0.4,0.4-0.9,0.4-1.3,0l-1.3-1.3
	c-0.4-0.4-0.4-0.9,0-1.3l6.8-6.8l-4.8-4.8l-14.8,14.8l11,11c1.4,1.4,3.5,1.4,4.9,0l9.9-9.9C825.3,986.9,825.3,984.7,823.9,983.3
	L823.9,983.3z"/>
<path class="st0" d="M375.4,941.5v-49.1c0-2-1.6-3.5-3.5-3.5h-48c-7.8,0-14,6.3-14,14v46.8c0,7.8,6.3,14,14,14h48
	c2,0,3.5-1.6,3.5-3.5V958c0-1.1-0.5-2.1-1.3-2.7c-0.7-2.3-0.7-8.7,0-11C374.9,943.7,375.4,942.6,375.4,941.5L375.4,941.5z
	 M328.6,908.5c0-0.5,0.4-0.9,0.9-0.9h31c0.5,0,0.9,0.4,0.9,0.9v2.9c0,0.5-0.4,0.9-0.9,0.9h-31c-0.5,0-0.9-0.4-0.9-0.9V908.5z
	 M328.6,917.9c0-0.5,0.4-0.9,0.9-0.9h31c0.5,0,0.9,0.4,0.9,0.9v2.9c0,0.5-0.4,0.9-0.9,0.9h-31c-0.5,0-0.9-0.4-0.9-0.9V917.9z
	 M365.7,954.4H324c-2.5,0-4.7-2.1-4.7-4.7s2.1-4.7,4.7-4.7h41.7C365.4,947.6,365.4,952,365.7,954.4z"/>
<path class="st0" d="M392.6,623.1V574c0-2-1.6-3.5-3.5-3.5h-48c-7.8,0-14,6.3-14,14v46.8c0,7.8,6.3,14,14,14h48c2,0,3.5-1.6,3.5-3.5
	v-2.4c0-1.1-0.5-2.1-1.3-2.7c-0.7-2.3-0.7-8.7,0-11C392.1,625.3,392.6,624.2,392.6,623.1L392.6,623.1z M345.8,590.1
	c0-0.5,0.4-0.9,0.9-0.9h31c0.5,0,0.9,0.4,0.9,0.9v2.9c0,0.5-0.4,0.9-0.9,0.9h-31c-0.5,0-0.9-0.4-0.9-0.9V590.1z M345.8,599.4
	c0-0.5,0.4-0.9,0.9-0.9h31c0.5,0,0.9,0.4,0.9,0.9v2.9c0,0.5-0.4,0.9-0.9,0.9h-31c-0.5,0-0.9-0.4-0.9-0.9V599.4z M382.8,636h-41.7
	c-2.5,0-4.7-2.1-4.7-4.7c0-2.5,2.1-4.7,4.7-4.7h41.7C382.6,629.1,382.6,633.5,382.8,636z"/>
<path class="st0" d="M565.5,116.6V67.5c0-2-1.6-3.5-3.5-3.5h-48c-7.8,0-14,6.3-14,14v46.8c0,7.8,6.3,14,14,14h48
	c2,0,3.5-1.6,3.5-3.5v-2.4c0-1.1-0.5-2.1-1.3-2.7c-0.7-2.3-0.7-8.7,0-11C565,118.8,565.5,117.7,565.5,116.6L565.5,116.6z
	 M518.7,83.6c0-0.5,0.4-0.9,0.9-0.9h31c0.5,0,0.9,0.4,0.9,0.9v2.9c0,0.5-0.4,0.9-0.9,0.9h-31c-0.5,0-0.9-0.4-0.9-0.9V83.6z
	 M518.7,93c0-0.5,0.4-0.9,0.9-0.9h31c0.5,0,0.9,0.4,0.9,0.9v2.9c0,0.5-0.4,0.9-0.9,0.9h-31c-0.5,0-0.9-0.4-0.9-0.9V93z M555.8,129.5
	H514c-2.5,0-4.7-2.1-4.7-4.7s2.1-4.7,4.7-4.7h41.7C555.5,122.6,555.5,127.1,555.8,129.5z"/>
<path class="st0" d="M730.6,447v-49.1c0-2-1.6-3.5-3.5-3.5h-48c-7.8,0-14,6.3-14,14v46.8c0,7.8,6.3,14,14,14h48c2,0,3.5-1.6,3.5-3.5
	v-2.4c0-1.1-0.5-2.1-1.3-2.7c-0.7-2.3-0.7-8.7,0-11C730.1,449.1,730.6,448,730.6,447L730.6,447z M683.8,413.9c0-0.5,0.4-0.9,0.9-0.9
	h31c0.5,0,0.9,0.4,0.9,0.9v2.9c0,0.5-0.4,0.9-0.9,0.9h-31c-0.5,0-0.9-0.4-0.9-0.9V413.9z M683.8,423.3c0-0.5,0.4-0.9,0.9-0.9h31
	c0.5,0,0.9,0.4,0.9,0.9v2.9c0,0.5-0.4,0.9-0.9,0.9h-31c-0.5,0-0.9-0.4-0.9-0.9V423.3z M720.8,459.8h-41.7c-2.5,0-4.7-2.1-4.7-4.7
	s2.1-4.7,4.7-4.7h41.7C720.6,453,720.6,457.4,720.8,459.8z"/>
<path class="st0" d="M800.4,757.3v-49.1c0-2-1.6-3.5-3.5-3.5h-48c-7.8,0-14,6.3-14,14v46.8c0,7.8,6.3,14,14,14h48
	c2,0,3.5-1.6,3.5-3.5v-2.4c0-1.1-0.5-2.1-1.3-2.7c-0.7-2.3-0.7-8.7,0-11C799.9,759.4,800.4,758.4,800.4,757.3L800.4,757.3z
	 M753.6,724.3c0-0.5,0.4-0.9,0.9-0.9h31c0.5,0,0.9,0.4,0.9,0.9v2.9c0,0.5-0.4,0.9-0.9,0.9h-31c-0.5,0-0.9-0.4-0.9-0.9V724.3z
	 M753.6,733.6c0-0.5,0.4-0.9,0.9-0.9h31c0.5,0,0.9,0.4,0.9,0.9v2.9c0,0.5-0.4,0.9-0.9,0.9h-31c-0.5,0-0.9-0.4-0.9-0.9V733.6z
	 M790.7,770.1h-41.7c-2.5,0-4.7-2.1-4.7-4.7s2.1-4.7,4.7-4.7h41.7C790.4,763.3,790.4,767.7,790.7,770.1z"/>
<path class="st0" d="M825.5,30.6l-2.8-2.8c-0.8-0.8-2-0.8-2.8,0l-5.6,5.6l-5.6-5.6c-0.8-0.8-2-0.8-2.8,0l-2.8,2.8
	c-0.8,0.8-0.8,2,0,2.8l5.6,5.6l-5.6,5.6c-0.8,0.8-0.8,2,0,2.8l2.8,2.8c0.8,0.8,2,0.8,2.8,0l5.6-5.6l5.6,5.6c0.8,0.8,2,0.8,2.8,0
	l2.8-2.8c0.8-0.8,0.8-2,0-2.8l-5.6-5.6l5.6-5.6C826.3,32.6,826.3,31.5,825.5,30.6z M823.1,0h-29.7c-1.8,0-3.3,1.3-3.8,2.9
	l-10.3,39.2l-7.1-12.9c-0.6-1.3-2-2-3.4-2H759c-1.6,0-2.9,1.3-2.9,2.9V36c0,1.6,1.3,2.9,2.9,2.9h5.3L775,58.8
	c1.5,2.4,3.6,3.4,5.9,3.4c2.1,0,5.4-1.1,6.6-5l11.9-45.6h23.7c1.6,0,2.9-1.3,2.9-2.9V2.8C826,1.4,824.8,0,823.1,0z"/>
<path class="st0" d="M652,841.4l-2.8-2.8c-0.8-0.8-2-0.8-2.8,0l-5.6,5.6l-5.6-5.6c-0.8-0.8-2-0.8-2.8,0l-2.8,2.8
	c-0.8,0.8-0.8,2,0,2.8l5.6,5.6l-5.6,5.6c-0.8,0.8-0.8,2,0,2.8l2.8,2.8c0.8,0.8,2,0.8,2.8,0l5.6-5.6l5.6,5.6c0.8,0.8,2,0.8,2.8,0
	l2.8-2.8c0.8-0.8,0.8-2,0-2.8l-5.6-5.6l5.6-5.6C652.8,843.4,652.8,842.3,652,841.4z M649.6,810.8h-29.7c-1.8,0-3.3,1.3-3.8,2.9
	L605.9,853l-7.1-12.9c-0.6-1.3-2-2-3.4-2h-9.9c-1.6,0-2.9,1.3-2.9,2.9v5.9c0,1.6,1.3,2.9,2.9,2.9h5.3l10.8,19.9
	c1.5,2.4,3.6,3.4,5.9,3.4c2.1,0,5.4-1.1,6.6-5l11.9-45.6h23.7c1.6,0,2.9-1.3,2.9-2.9v-5.9C652.5,812.2,651.3,810.8,649.6,810.8z"/>
<path class="st0" d="M468.9,362.8l-2.8-2.8c-0.8-0.8-2-0.8-2.8,0l-5.6,5.6l-5.6-5.6c-0.8-0.8-2-0.8-2.8,0l-2.8,2.8
	c-0.8,0.8-0.8,2,0,2.8l5.6,5.6l-5.6,5.6c-0.8,0.8-0.8,2,0,2.8l2.8,2.8c0.8,0.8,2,0.8,2.8,0l5.6-5.6l5.6,5.6c0.8,0.8,2,0.8,2.8,0
	l2.8-2.8c0.8-0.8,0.8-2,0-2.8l-5.6-5.6l5.6-5.6C469.7,364.8,469.7,363.7,468.9,362.8z M466.5,332.2h-29.7c-1.8,0-3.3,1.3-3.8,2.9
	l-10.3,39.2l-7.1-12.9c-0.6-1.3-2-2-3.4-2h-9.9c-1.6,0-2.9,1.3-2.9,2.9v5.9c0,1.6,1.3,2.9,2.9,2.9h5.3l10.8,19.9
	c1.5,2.4,3.6,3.4,5.9,3.4c2.1,0,5.4-1.1,6.6-5l11.9-45.6h23.7c1.6,0,2.9-1.3,2.9-2.9V335C469.4,333.6,468.2,332.2,466.5,332.2z"/>
<path class="st0" d="M790.5,530.6l-2.8-2.8c-0.8-0.8-2-0.8-2.8,0l-5.6,5.6l-5.6-5.6c-0.8-0.8-2-0.8-2.8,0l-2.8,2.8
	c-0.8,0.8-0.8,2,0,2.8l5.6,5.6l-5.6,5.6c-0.8,0.8-0.8,2,0,2.8l2.8,2.8c0.8,0.8,2,0.8,2.8,0l5.6-5.6l5.6,5.6c0.8,0.8,2,0.8,2.8,0
	l2.8-2.8c0.8-0.8,0.8-2,0-2.8l-5.6-5.6l5.6-5.6C791.3,532.6,791.3,531.5,790.5,530.6z M788.1,500h-29.7c-1.8,0-3.3,1.3-3.8,2.9
	l-10.3,39.2l-7.1-12.9c-0.6-1.3-2-2-3.4-2H724c-1.6,0-2.9,1.3-2.9,2.9v5.9c0,1.6,1.3,2.9,2.9,2.9h5.3l10.8,19.9
	c1.5,2.4,3.6,3.4,5.9,3.4c2.1,0,5.4-1.1,6.6-5l11.9-45.6h23.7c1.6,0,2.9-1.3,2.9-2.9v-5.9C791,501.4,789.8,500,788.1,500z"/>
</svg>
