<svg version="1.1" id="prefix__Слой_1" xmlns="http://www.w3.org/2000/svg" x="0" y="0" viewBox="0 0 442.1 302.3" xml:space="preserve"><style>.prefix__st0{fill:#d02c27}.prefix__st2{fill:#fff}</style><g id="prefix__Sword"><path class="prefix__st0" d="M262.1 68.5c-.5-.4-1.3-.7-2.2-.8 0 .7.1 1.5.2 2.2-.6.1-1.4.5-2.3 1.3.5.5 1.1.9 1.7 1.3s1.3.6 1.8.6h.5c1-.2 1.6-.6 1.7-1.4v-.6c0-.5-.1-1-.4-1.4 0-.4-.4-.8-1-1.2zM257 65.4c-.6.8-.8 1.6-.8 2.5 0 1 .3 1.9 1 2.7.2-.4.3-.8.3-1.2l.1-3.2c0-.3-.1-.6-.3-1.1l-.3.3zM258.7 34c1.2.6 2.2 1 3.2 1 .3 0 .7 0 1-.1.6-.1 1.1-.4 1.4-.7.4-.4.5-.8.5-1.2s-.2-.9-.5-1.3c-.4-.4-.9-.7-1.7-.8h-.4c-.2 0-.5.1-1 .3-.6.2-1 .7-1.4 1.5h-.2c-1.1 0-2.3-.5-3.7-1.4.4.9 1.3 1.8 2.8 2.7zM261 66.4c.4-.3.7-.6 1-1-.5-.4-1.2-.7-2-1-.1.6-.1 1.2-.1 1.7v1.2c.4-.3.7-.6 1.1-.9z"/><path class="prefix__st0" d="M303.5 74.1h-33.6l-.2-47.2 7.8-17.7c-2.9-7-11.8-9.2-17.6-9.1s-14.7 2.1-17.6 9.1l7.8 17.7-.2 47.2h-33.6c-3.6 2.1-2.8 11.5 0 13.4l19-.1 1.8 2.5c.6.9 1.6 2.7 1.6 2.7l1.8 175c1.4 11.3 6.7 22.6 19.3 34.6 12.6-12 17.9-23.3 19.3-34.6l1.8-175s1-1.9 1.6-2.7l1.8-2.5 19 .1c3-1.9 3.7-11.3.2-13.4zM260 75.7c-4.1-1.7-6.2-4.2-6.2-7.5v-.7c1.9-2.8 4-4.6 6.4-5.6 1.3.9 3 1.6 5.2 2.2l-2.1 2c1.3 1.1 2.3 2.2 3.1 3.4-1.4 2.7-3.5 4.8-6.4 6.2zM255.4 49c-.5-1.1-.8-1.9-1-2.3-.2-.4-.3-.7-.3-1s0-.4.1-.6c.2-.4.6-.7 1.2-1s1.6-.7 2.9-1.2c.2.4.3.8.4 1-.9.3-1.3.6-1.4 1.1v.2c0 .4.1.9.4 1.5.6-.6 1.2-1.2 1.8-1.9.6-.7 1.2-1.3 1.7-1.8.7.4 1.5.8 2.2 1.2.8.4 1.5.7 2.4 1-1 .7-1.5 1.8-1.6 3.4l-.1 3.4v.2c0 1 .4 1.6 1.1 1.8-.5.9-1 1.8-1.5 2.8-.9-.3-1.5-.8-1.9-1.5-.3-.7-.5-1.7-.5-2.9v-2.5c0-.6.1-1 .3-1.5.2-.4.5-.8.8-1.3-.6-.5-1.3-.7-1.9-.7-.7 0-1.5.4-2.3 1.2.5.9.7 1.6.7 2.1 0 .2 0 .3-.1.4-.2.6-.8 1.6-1.8 2.9.6.4 1.4.7 2.4 1l-1.5 2.8c-1.8-.9-3.2-1.6-4.3-2.2 1.4-1.3 2.1-2.2 2.3-2.7v-.3c.3-.6.1-1.4-.5-2.6zm7.8-21.3c-.4 0-.8-.1-1.4-.3-1.7-.6-2.9-.9-3.6-.9-.4 0-.7 0-1.1.1-1 .2-1.4.8-1.4 1.7 0 .3.1.6.3.9.3.5.8.8 1.5.8s1.3-.6 1.8-1.8c.6-.1 1.1-.1 1.6-.1 1 0 1.9.2 2.7.5 1.2.5 1.9 1.3 2.3 2.3.2.4.2.9.2 1.4 0 .5-.2 1.1-.5 1.8-.5 1.2-1.6 2.3-3.2 3.4-.3.2-.6.3-1 .3s-.8-.1-1.3-.2c-1.2-.3-2.4-.7-3.4-1.4s-1.9-1.6-2.6-2.8c-.3-.5-.5-1.2-.5-1.8v-.2c.2-3 1.4-5.4 3.5-7.2.4-.3 1-.5 1.7-.5 1.2 0 2.4.3 3.6.8.6.3 1.2.4 1.7.4.6 0 1.3-.2 2.1-.7l.4.4c-1 2.1-2.1 3.1-3.4 3.1z"/></g><g id="prefix__Text"><path class="prefix__st2" d="M188 230.9l-47.8-19.1c1.8-10 2.7-20.4 2.7-31.2s-1-22.1-3.1-33.9l34.4-20.3v-.3l.2.1h.1l38.8 27.8-40.4 42.5c2.7 3.3 5.8 5.1 9.1 5.4 3.3.3 6.1.5 8.2.5 2.2 0 4.7-.1 7.7-.3s6.6-.4 10.9-.5l-10.5 14.7c-3.4 4.9-6.8 9.8-10.3 14.6zm-16.6-77.7c-3.9 0-5.8 5.3-5.8 15.8 0 6 1 12 3 18 0 .6.1 1.1.3 1.5l16.1-17c1.1-1.2 1.7-2.4 1.7-3.6 0-1.2-.6-2.7-1.7-4.6-1.2-1.9-2.3-3.4-3.5-4.6-4.3-3.7-7.6-5.5-10.1-5.5zM219 158.3l38.9-31.6 44.1 20.7c-5.2 4.5-7.8 9.6-7.9 15.3l-.4 33c0 2.3 1.2 4.8 3.5 7.7 2.4 2.9 4.6 5.2 6.7 6.9l-20.2 20.8-15.3-16.1c-3.7 3-7.5 5.7-11.3 8.2s-7.2 5.1-10.2 7.8c-10-3.7-19.3-9.5-27.9-17.3 2.5-3.1 3.9-7.7 4.3-13.7l-.3-30v-.8c0-3.9-1.3-7.6-4-10.9zm34.3-7.7c-3.9 5.8-5.8 10.9-5.8 15.5v24.5c0 5 .9 8.6 2.7 10.7 1.5 2.2 2.9 4.2 4.2 5.9s3.4 3 6.2 3.8l8.2-5.9V159l-15.5-8.4zM348.3 141.1l11.9-14.9 25.5 18.9 15.1-18.9 31.8 23.1-3 11.8-1.3 32.1v.9c0 3.1 1 5.7 3 7.8s4.3 3.6 6.8 4.7l-20 24.4c-4.9-3.9-8.7-7.3-11.3-10.3-2.6-3-3.9-9.1-3.9-18.5v-2.1l.7-36.9c0-2.7-3.6-7-10.7-13.1l-4.1 7.1-1.5 36v.6c0 3.3 1 5.9 3 8s4.3 3.7 6.9 4.7l-20 24.4-21.2-17.1c3.8-4.5 5.8-9 5.9-13.8l.6-36.9c0-2.9-3.9-7.6-11.7-13.9l-5.9 7-.9 36.9c-.1 3.5.9 6.4 2.9 8.5 2 2.2 4.3 3.8 6.9 4.8l-20 24.4-21.1-17.1c3.8-4.6 5.7-9.2 5.7-13.8l.8-45.3c0-3.2-2.5-6.4-7.4-9.6l15.1-19 21.3 14.8v.3h.1zM2.6 160.9C14.9 144 31 126.5 50.8 108.3c-3.3-2.7-6.7-4-10.4-4-5.2 0-16.2 3.5-32.9 10.4l24.1-36.6c19.4 2 37.4 3 54 3s32.6-1 47.8-3c-7.4 17-12.5 28.9-15.4 35.7-7.4-3.1-15.1-5.5-23.1-7.2l.8 81.9c-11.8 1.3-22.9 5.6-33.4 12.9 8.5 7 18.7 10.5 30.6 10.5s24.9-3.7 38.9-11c-.3 4.5-.5 9-.6 13.6-36.6 16.8-64.9 19.5-84.8 8.1-20-11.4-34.6-32-43.8-61.7zM61 118.7c-10.3 9.7-16.4 19.8-18.3 30.1-.7 3.5-1 7.8-1 12.7s1.3 10.5 3.8 16.7 5.8 11.7 9.8 16.3c4.8-4.7 7.3-12 7.6-21.9.5-18.4.7-30.8.7-37.3 0-6.4-.9-12-2.6-16.6z"/></g><g id="prefix__Sub_Taxt"><path class="prefix__st2" d="M38.4 246.7c9.2 0 17.3 4.6 17.3 11.6 0 7.5-7.8 12.2-17.7 12.2-10.3 0-17.8-5.1-17.8-11.7.1-6.3 6.9-12.1 18.2-12.1zm-1.1 1.3c-6 0-11.5 3.3-11.5 9.8 0 6.5 5.5 11.3 13.1 11.3 6.5 0 11.4-3.2 11.4-9.9 0-7.3-6-11.2-13-11.2zM100.4 252.7c-.5-1-.9-1.8-1.7-2.6-1-1.2-1.8-1.5-4.8-1.5h-5.7c-1.6 0-1.7.1-1.7 1.1v8.1h6.6c3.9 0 4.1-.4 4.9-2.9h1.6v7.3H98c-.7-2.5-1.1-3-4.9-3h-6.6v6.3c0 3 .5 3.2 5.4 3.5v1H77v-1c4.3-.2 4.8-.5 4.8-3.5v-13.9c0-3-.5-3.2-4.8-3.5v-1h17c4.8 0 6.6 0 7.5-.1.1 1.3.3 3.7.5 5.4l-1.6.3zM169.1 270v-1c3.5-.3 3.9-.6 3.2-2-.7-1.4-1.8-3.1-2.9-5.3h-11.6c-.9 1.6-1.7 2.9-2.4 4.4-1.2 2.3-.4 2.6 4 2.9v1H147v-1c3.4-.3 4.2-.5 6.1-3.7l11.1-18.4 1.7-.2c3.4 6 7.1 12.6 10.4 18.7 1.7 3 2.2 3.3 6 3.6v1h-13.2zm-5.4-18.7c-1.7 3-3.5 6.2-5.1 9h10l-4.9-9zM227.4 264.2c-.3 1.1-1.9 4.7-2.5 5.8H200v-1c4.9-.3 5.3-.5 5.3-3.5v-13.9c0-3-.5-3.2-4.8-3.4v-1h14.3v1c-4.3.3-4.9.4-4.9 3.4v14.2c0 2.1.4 2.6 3.5 2.7h4.2c2.7 0 3.5-.2 4.8-1.1 1.3-.9 2.5-2.3 3.3-3.6l1.7.4zM265.3 257.6c5.1.6 9.3 2.2 9.3 5.6 0 2.4-2 4.3-5.2 5.4-2.8 1-5.5 1.4-9.3 1.4H247v-1c4.6-.3 4.8-.6 4.8-3.4v-14c0-2.9-.5-3.2-4.8-3.4v-1h14c4 0 6.5.5 8.2 1.2 1.9.8 3.2 2.1 3.2 3.9 0 3.4-4.1 4.9-7.1 5.3zm-6.2-.4c5.9 0 8.3-1.5 8.3-4.4 0-2.5-2.3-4.3-7.4-4.3-1.5 0-2.5.1-3 .3-.4.2-.6.6-.6 1.7v6.7h2.7zm-2.7 8.4c0 2.5.9 3.2 4.7 3.2 4.2 0 8.2-1.5 8.2-5.1 0-3.6-3.9-5.1-10.4-5.1h-2.6v7zM295.1 270v-1c4.4-.3 4.8-.5 4.8-3.4v-13.9c0-3-.4-3.2-4.8-3.5v-1h14.3v1c-4.4.3-4.9.5-4.9 3.5v13.9c0 3 .4 3.1 4.9 3.4v1h-14.3zM348.7 246.7c9.2 0 17.3 4.6 17.3 11.6 0 7.5-7.8 12.2-17.7 12.2-10.3 0-17.8-5.1-17.8-11.7.1-6.3 6.9-12.1 18.2-12.1zm-1.1 1.3c-6 0-11.5 3.3-11.5 9.8 0 6.5 5.5 11.3 13.1 11.3 6.5 0 11.4-3.2 11.4-9.9-.1-7.3-6-11.2-13-11.2zM424.3 248.2c-3.4.2-4.6.6-4.7 2.2-.1 1.1-.2 2.6-.2 5.8v14h-2l-23-18.2v8.8c0 3.2.2 4.7.3 5.7.1 1.8 1.4 2.3 5.3 2.5v1h-13v-1c3.3-.2 4.6-.7 4.8-2.4.2-1.1.3-2.7.3-5.9v-8.9c0-1-.1-1.5-1.1-2.3-1-.9-2.1-1.1-4.8-1.3v-1h8l22.7 17.6v-8.6c0-3.3-.1-4.8-.3-5.8-.2-1.6-1.4-2.1-5.7-2.2v-1h13.2v1z"/></g></svg>