<?xml version="1.0" encoding="utf-8"?>
<!-- Generator: Adobe Illustrator 22.0.1, SVG Export Plug-In . SVG Version: 6.00 Build 0)  -->
<svg version="1.1" id="Слой_2_1_" xmlns="http://www.w3.org/2000/svg" xmlns:xlink="http://www.w3.org/1999/xlink" x="0px"
	 y="0px" viewBox="0 0 1000 1000" style="enable-background:new 0 0 1000 1000;" xml:space="preserve">
<style type="text/css">
	.st0{opacity:0.5;fill:#B646F0;enable-background:new    ;}
</style>
<path class="st0" d="M106.1,241.8l25.8-25.8l-8.3-8.3l-11.9,11.9c-0.6,0.6-1.6,0.6-2,0l0,0l-2.3-2.3c-0.6-0.6-0.6-1.6,0-2.3
	l11.9-11.9l-6.6-6.6c-2.4-2.4-6.2-2.4-8.6,0l-17.2,17.2c-2.4,2.4-2.4,6.2,0,8.6L106.1,241.8L106.1,241.8z M180.5,219.3
	c3.7-3.7,3.7-9.5,0-13l-8.6-8.6c-3.7-3.7-9.5-3.7-13,0l-8.7,8.7l21.6,21.6L180.5,219.3L180.5,219.3z M145.8,211l-56.7,56.7
	l-3.7,20.6c-0.4,2.9,1.9,5.2,4.7,4.7l20.6-3.7l56.7-56.7L145.8,211z M181.5,265.5L175,259l-11.9,11.9c-0.6,0.6-1.6,0.6-2.3,0
	l-2.3-2.3c-0.6-0.6-0.6-1.6,0-2.3l11.9-11.9l-8.3-8.3l-25.8,25.8l19.2,19.2c2.4,2.4,6.2,2.4,8.6,0l17.2-17.2
	C183.8,271.9,183.8,268,181.5,265.5L181.5,265.5z"/>
<path class="st0" d="M896.6,232.2l25.8-25.8l-8.3-8.3L902.1,210c-0.6,0.6-1.6,0.6-2,0l0,0l-2.3-2.3c-0.6-0.6-0.6-1.6,0-2.3
	l11.9-11.9l-6.6-6.6c-2.4-2.4-6.2-2.4-8.6,0l-17.2,17.2c-2.4,2.4-2.4,6.2,0,8.6L896.6,232.2L896.6,232.2z M970.9,209.7
	c3.7-3.7,3.7-9.5,0-13l-8.6-8.6c-3.7-3.7-9.5-3.7-13,0l-8.7,8.7l21.6,21.6L970.9,209.7L970.9,209.7z M936.2,201.4l-56.7,56.7
	l-3.7,20.6c-0.4,2.9,1.9,5.2,4.7,4.7l20.6-3.7l56.7-56.7L936.2,201.4z M971.9,255.8l-6.6-6.6l-11.9,11.9c-0.6,0.6-1.6,0.6-2.3,0
	l-2.3-2.3c-0.6-0.6-0.6-1.6,0-2.3l11.9-11.9l-8.3-8.3l-25.8,25.8l19.2,19.2c2.4,2.4,6.2,2.4,8.6,0l17.2-17.2
	C974.2,262.3,974.2,258.4,971.9,255.8L971.9,255.8z"/>
<path class="st0" d="M319.3,828.9l25.8-25.8l-8.3-8.3l-11.9,11.9c-0.6,0.6-1.6,0.6-2,0l0,0l-2.3-2.3c-0.6-0.6-0.6-1.6,0-2.3
	l11.9-11.9l-6.6-6.6c-2.4-2.4-6.2-2.4-8.6,0l-17.2,17.2c-2.4,2.4-2.4,6.2,0,8.6L319.3,828.9L319.3,828.9z M393.6,806.4
	c3.7-3.7,3.7-9.5,0-13l-8.6-8.6c-3.7-3.7-9.5-3.7-13,0l-8.7,8.7l21.6,21.6L393.6,806.4L393.6,806.4z M358.9,798l-56.9,56.9
	l-3.7,20.6c-0.4,2.9,1.9,5.2,4.7,4.7l20.6-3.7l56.7-56.7L358.9,798z M394.6,852.6L388,846l-11.9,11.9c-0.6,0.6-1.6,0.6-2.3,0
	l-2.3-2.3c-0.6-0.6-0.6-1.6,0-2.3l11.9-11.9l-8.3-8.3l-25.8,25.8l19.2,19.2c2.4,2.4,6.2,2.4,8.6,0l17.2-17.2
	C396.9,858.9,396.9,855,394.6,852.6L394.6,852.6z"/>
<path class="st0" d="M842.5,838.9l21.2-21.2l-6.9-6.9l-9.7,9.7c-0.6,0.6-1.3,0.6-1.7,0l0,0l-1.9-1.9c-0.6-0.6-0.6-1.3,0-1.9l9.7-9.7
	l-5.4-5.4c-2-2-5-2-7,0l-14.2,14.2c-2,2-2,5,0,7L842.5,838.9L842.5,838.9z M903.7,820.4c3-3,3-7.7,0-10.7l-7-7c-3-3-7.7-3-10.7,0
	l-7.2,7.2l17.8,17.8L903.7,820.4L903.7,820.4z M875,813.5l-46.7,46.7l-3,17c-0.3,2.3,1.6,4.2,3.9,3.9l17-3l46.7-46.7L875,813.5z
	 M904.4,858.5l-5.4-5.4l-9.7,9.7c-0.6,0.6-1.3,0.6-1.9,0l-1.9-1.9c-0.6-0.6-0.6-1.3,0-1.9l9.7-9.7l-6.9-6.9l-21.2,21.2l15.8,15.8
	c2,2,5,2,7,0l14.2-14.2C906.4,863.7,906.4,860.5,904.4,858.5L904.4,858.5z"/>
<path class="st0" d="M140.8,857.2v-70.3c0-2.9-2.3-5-5-5H67c-11.2,0-20.1,9-20.1,20.1v67C47,880.1,56,889,67,889h68.8
	c2.9,0,5-2.3,5-5v-3.2c0-1.6-0.7-3-1.9-3.9c-1-3.3-1-12.5,0-15.8C140.1,860.3,140.8,858.8,140.8,857.2L140.8,857.2z M73.8,809.9
	c0-0.7,0.6-1.3,1.3-1.3h44.4c0.7,0,1.3,0.6,1.3,1.3v4.2c0,0.7-0.6,1.3-1.3,1.3H75.1c-0.7,0-1.3-0.6-1.3-1.3V809.9z M73.8,823.4
	c0-0.7,0.6-1.3,1.3-1.3h44.4c0.7,0,1.3,0.6,1.3,1.3v4.2c0,0.7-0.6,1.3-1.3,1.3H75.1c-0.7,0-1.3-0.6-1.3-1.3V823.4z M126.9,875.7
	H67.2c-3.6,0-6.7-3-6.7-6.7s3-6.7,6.7-6.7h59.7C126.5,865.9,126.5,872.2,126.9,875.7z"/>
<path class="st0" d="M582.3,405.9v-70.3c0-2.9-2.3-5-5-5h-68.8c-11.2,0-20.1,9-20.1,20.1v67c0,11.2,9,20.1,20.1,20.1h68.8
	c2.9,0,5-2.3,5-5v-3.4c0-1.6-0.7-3-1.9-3.9c-1-3.3-1-12.5,0-15.8C581.6,409.1,582.3,407.5,582.3,405.9L582.3,405.9z M515.2,358.6
	c0-0.7,0.6-1.3,1.3-1.3h44.4c0.7,0,1.3,0.6,1.3,1.3v4.2c0,0.7-0.6,1.3-1.3,1.3h-44.4c-0.7,0-1.3-0.6-1.3-1.3V358.6z M515.2,372
	c0-0.7,0.6-1.3,1.3-1.3h44.4c0.7,0,1.3,0.6,1.3,1.3v4.2c0,0.7-0.6,1.3-1.3,1.3h-44.4c-0.7,0-1.3-0.6-1.3-1.3V372z M568.2,424.4
	h-59.7c-3.6,0-6.7-3-6.7-6.7c0-3.6,3-6.7,6.7-6.7h59.7C568,414.5,568,420.8,568.2,424.4z"/>
<path class="st0" d="M453.5,142V71.7c0-2.9-2.3-5-5-5h-68.8c-11.2,0-20.1,9-20.1,20.1v67c0,11.2,9,20.1,20.1,20.1h68.8
	c2.9,0,5-2.3,5-5v-3.4c0-1.6-0.7-3-1.9-3.9c-1-3.3-1-12.5,0-15.8C452.8,145.2,453.5,143.6,453.5,142L453.5,142z M386.5,94.8
	c0-0.7,0.6-1.3,1.3-1.3h44.4c0.7,0,1.3,0.6,1.3,1.3v4.2c0,0.7-0.6,1.3-1.3,1.3h-44.4c-0.7,0-1.3-0.6-1.3-1.3V94.8z M386.5,108.2
	c0-0.7,0.6-1.3,1.3-1.3h44.4c0.7,0,1.3,0.6,1.3,1.3v4.2c0,0.7-0.6,1.3-1.3,1.3h-44.4c-0.7,0-1.3-0.6-1.3-1.3V108.2z M439.6,160.5
	h-59.9c-3.6,0-6.7-3-6.7-6.7s3-6.7,6.7-6.7h59.7C439.2,150.6,439.2,157.1,439.6,160.5z"/>
<path class="st0" d="M619.1,735.8v-70.3c0-2.9-2.3-5-5-5h-68.8c-11.2,0-20.1,9-20.1,20.1v67c0,11.2,9,20.1,20.1,20.1h68.8
	c2.9,0,5-2.3,5-5v-3.4c0-1.6-0.7-3-1.9-3.9c-1-3.3-1-12.5,0-15.8C618.4,738.8,619.1,737.4,619.1,735.8L619.1,735.8z M552.1,688.5
	c0-0.7,0.6-1.3,1.3-1.3h44.4c0.7,0,1.3,0.6,1.3,1.3v4.2c0,0.7-0.6,1.3-1.3,1.3h-44.4c-0.7,0-1.3-0.6-1.3-1.3V688.5z M552.1,701.8
	c0-0.7,0.6-1.3,1.3-1.3h44.4c0.7,0,1.3,0.6,1.3,1.3v4.2c0,0.7-0.6,1.3-1.3,1.3h-44.4c-0.7,0-1.3-0.6-1.3-1.3V701.8z M605.2,754.1
	h-59.7c-3.6,0-6.7-3-6.7-6.7s3-6.7,6.7-6.7h59.7C604.8,744.4,604.8,750.7,605.2,754.1z"/>
<path class="st0" d="M728,132.7l-4-4c-1.1-1.1-2.9-1.1-4,0l-8,8l-8-8c-1.1-1.1-2.9-1.1-4,0l-4,4c-1.1,1.1-1.1,2.9,0,4l8,8l-8,8
	c-1.1,1.1-1.1,2.9,0,4l4,4c1.1,1.1,2.9,1.1,4,0l8-8l8,8c1.1,1.1,2.9,1.1,4,0l4-4c1.1-1.1,1.1-2.9,0-4l-8-8l8-8
	C729.1,135.6,729.1,134,728,132.7z M724.5,88.9H682c-2.6,0-4.7,1.9-5.4,4.2l-14.8,56.2l-10.2-18.5c-0.9-1.9-2.9-2.9-4.9-2.9h-14
	c-2.3,0-4.2,1.9-4.2,4.2v8.5c0,2.3,1.9,4.2,4.2,4.2h7.6l15.3,28.5c2.1,3.4,5.2,4.9,8.5,4.9c3,0,7.7-1.6,9.5-7.2l17-65.3h34
	c2.3,0,4.2-1.9,4.2-4.2v-8.5C728.7,90.9,727,88.9,724.5,88.9z"/>
<path class="st0" d="M611.3,925l-4-4c-1.1-1.1-2.9-1.1-4,0l-8,8l-8-8c-1.1-1.1-2.9-1.1-4,0l-4,4c-1.1,1.1-1.1,2.9,0,4l8,8l-8,8
	c-1.1,1.1-1.1,2.9,0,4l4,4c1.1,1.1,2.9,1.1,4,0l8-8l8,8c1.1,1.1,2.9,1.1,4,0l4-4c1.1-1.1,1.1-2.9,0-4l-8-8l8-8
	C612.5,927.9,612.5,926.3,611.3,925z M607.9,881.2h-42.5c-2.6,0-4.7,1.9-5.4,4.2l-14.6,56.3l-10.2-18.5c-0.9-1.9-2.9-2.9-4.9-2.9
	h-14.2c-2.3,0-4.2,1.9-4.2,4.2v8.5c0,2.3,1.9,4.2,4.2,4.2h7.6l15.5,28.5c2.1,3.4,5.2,4.9,8.5,4.9c3,0,7.7-1.6,9.5-7.2l17-65.3h34
	c2.3,0,4.2-1.9,4.2-4.2v-8.5C612.1,883.2,610.3,881.2,607.9,881.2z"/>
<path class="st0" d="M297.4,588.4l-4-4c-1.1-1.1-2.9-1.1-4,0l-8,8l-8-8c-1.1-1.1-2.9-1.1-4,0l-4,4c-1.1,1.1-1.1,2.9,0,4l8,8l-8,8
	c-1.1,1.1-1.1,2.9,0,4l4,4c1.1,1.1,2.9,1.1,4,0l8-8l8,8c1.1,1.1,2.9,1.1,4,0l4-4c1.1-1.1,1.1-2.9,0-4l-8-8l8-8
	C298.6,591.3,298.6,589.7,297.4,588.4z M294,544.6h-42.5c-2.6,0-4.7,1.9-5.4,4.2l-14.8,56.2l-10.2-18.5c-0.9-1.9-2.9-2.9-4.9-2.9
	H202c-2.3,0-4.2,1.9-4.2,4.2v8.5c0,2.3,1.9,4.2,4.2,4.2h7.6l15.5,28.5c2.1,3.4,5.2,4.9,8.5,4.9c3,0,7.7-1.6,9.5-7.2l17-65.3h34
	c2.3,0,4.2-1.9,4.2-4.2v-8.5C298.1,546.6,296.4,544.6,294,544.6z"/>
<path class="st0" d="M871.4,543.8l-4-4c-1.1-1.1-2.9-1.1-4,0l-8,8l-8-8c-1.1-1.1-2.9-1.1-4,0l-4,4c-1.1,1.1-1.1,2.9,0,4l8,8l-8,8
	c-1.1,1.1-1.1,2.9,0,4l4,4c1.1,1.1,2.9,1.1,4,0l8-8l8,8c1.1,1.1,2.9,1.1,4,0l4-4c1.1-1.1,1.1-2.9,0-4l-8-8l8-8
	C872.5,546.7,872.5,545.1,871.4,543.8z M867.9,500h-42.5c-2.6,0-4.7,1.9-5.4,4.2l-14.8,56.2L795,541.8c-0.9-1.9-2.9-2.9-4.9-2.9h-14
	c-2.3,0-4.2,1.9-4.2,4.2v8.5c0,2.3,1.9,4.2,4.2,4.2h7.6l15.5,28.5c2.1,3.4,5.2,4.9,8.5,4.9c3,0,7.7-1.6,9.5-7.2l17-65.3h34
	c2.3,0,4.2-1.9,4.2-4.2V504C872.1,502,870.4,500,867.9,500z"/>
</svg>
