<?xml version="1.0" encoding="UTF-8" standalone="no"?>
<svg width="12px" height="19px" viewBox="0 0 12 19" version="1.1" xmlns="http://www.w3.org/2000/svg" xmlns:xlink="http://www.w3.org/1999/xlink">
    <!-- Generator: Sketch 41.2 (35397) - http://www.bohemiancoding.com/sketch -->
    <title>chevron</title>
    <desc>Created with Sketch.</desc>
    <defs></defs>
    <g id="Page-1" stroke="none" stroke-width="1" fill="none" fill-rule="evenodd">
        <g id="chevron" transform="translate(6.208076, 10.484232) rotate(90.000000) translate(-6.208076, -10.484232) translate(-3.484232, 4.484232)" fill="#FFFFFF">
            <g id="g3003" transform="translate(9.234589, 6.456572) scale(1, -1) translate(-9.234589, -6.456572) translate(0.003820, 0.918111)">
                <path d="M17.5563033,8.77815166 C17.5563033,8.37999843 17.4173253,8.04194381 17.1393693,7.76398779 L9.80358401,0.42820252 C9.51811566,0.142734173 9.17630488,0 8.77815166,0 C8.37248611,0 8.03443149,0.142734173 7.76398779,0.42820252 L0.42820252,7.76398779 C0.142734173,8.03443149 0,8.37248611 0,8.77815166 C0,9.17630488 0.142734173,9.51811566 0.42820252,9.80358401 L1.26207058,10.6487206 C1.55505126,10.9266766 1.89686204,11.0656546 2.28750293,11.0656546 C2.68565615,11.0656546 3.02371078,10.9266766 3.3016668,10.6487206 L8.77815166,5.1722357 L14.2546365,10.6487206 C14.5325925,10.9266766 14.8706472,11.0656546 15.2688004,11.0656546 C15.6594413,11.0656546 16.0012521,10.9266766 16.2942327,10.6487206 L17.1393693,9.80358401 C17.4173253,9.51060333 17.5563033,9.16879255 17.5563033,8.77815166 Z" id="path3005"></path>
            </g>
        </g>
    </g>
</svg>