<?xml version="1.0" encoding="utf-8"?>
<!-- Generator: Adobe Illustrator 22.0.1, SVG Export Plug-In . SVG Version: 6.00 Build 0)  -->
<svg version="1.1" id="Слой_2_1_" xmlns="http://www.w3.org/2000/svg" xmlns:xlink="http://www.w3.org/1999/xlink" x="0px"
	 y="0px" viewBox="0 0 1000 1000" style="enable-background:new 0 0 1000 1000;" xml:space="preserve">
<style type="text/css">
	.st0{opacity:0.5;fill:none;stroke:#737373;stroke-width:2.5;stroke-miterlimit:10;enable-background:new    ;}
</style>
<path class="st0" d="M804.9,148.2l31.6-18.2l-5.9-10.2l-14.6,8.4c-0.7,0.4-1.7,0.2-1.9-0.5l0,0l-1.6-2.8c-0.4-0.7-0.2-1.7,0.6-2.2
	l14.6-8.4l-4.7-8.1c-1.7-2.9-5.4-3.9-8.3-2.2l-21.1,12.2c-2.9,1.7-3.9,5.4-2.2,8.3L804.9,148.2L804.9,148.2z M882.6,145.7
	c4.5-2.6,6-8.2,3.4-12.6l-6.1-10.5c-2.6-4.5-8.2-6-12.6-3.4l-10.7,6.2l15.3,26.5L882.6,145.7L882.6,145.7z M851.2,128.7l-69.4,40.1
	l-8.9,18.9c-1.1,2.7,0.5,5.5,3.3,5.8l20.9,1.8l69.4-40.1L851.2,128.7z M871.6,190.6l-4.6-8l-14.6,8.4c-0.7,0.4-1.7,0.2-2.2-0.6
	l-1.6-2.8c-0.4-0.7-0.2-1.7,0.6-2.2l14.6-8.4l-5.9-10.2L826.3,185l13.6,23.5c1.7,2.9,5.4,3.9,8.3,2.2l21.1-12.2
	C872.2,197.4,873.2,193.6,871.6,190.6L871.6,190.6z"/>
<path class="st0" d="M238.4,370l31.6-18.2l-5.9-10.2l-14.7,8.4c-0.7,0.4-1.7,0.2-1.9-0.5l0,0l-1.6-2.8c-0.4-0.7-0.2-1.7,0.6-2.2
	l14.6-8.4l-4.7-8.1c-1.7-2.9-5.4-3.9-8.3-2.2L227,338c-2.9,1.7-3.9,5.4-2.2,8.3L238.4,370L238.4,370z M316,367.5
	c4.5-2.6,6-8.2,3.4-12.6l-6.1-10.5c-2.6-4.5-8.2-6-12.6-3.4l-10.7,6.2l15.3,26.5L316,367.5L316,367.5z M284.6,350.5l-69.4,40.1
	l-8.9,18.9c-1.1,2.7,0.5,5.5,3.3,5.8l20.9,1.8l69.4-40.1L284.6,350.5z M305,412.3l-4.7-8.1l-14.6,8.4c-0.7,0.4-1.7,0.2-2.2-0.6
	l-1.6-2.8c-0.4-0.7-0.2-1.7,0.6-2.2l14.6-8.4l-5.9-10.2l-31.6,18.2l13.6,23.5c1.7,2.9,5.4,3.9,8.3,2.2l21.1-12.2
	C305.6,419.2,306.6,415.4,305,412.3L305,412.3z"/>
<path class="st0" d="M200.1,876.2l31.6-18.2l-5.9-10.2l-14.6,8.4c-0.7,0.4-1.7,0.2-1.9-0.5l0,0l-1.6-2.8c-0.4-0.7-0.2-1.7,0.6-2.2
	l14.6-8.4l-4.7-8.1c-1.7-2.9-5.4-3.9-8.3-2.2l-21.1,12.2c-2.9,1.7-3.9,5.4-2.2,8.3L200.1,876.2L200.1,876.2z M277.7,873.7
	c4.5-2.6,6-8.2,3.4-12.6l-6.1-10.5c-2.6-4.5-8.2-6-12.6-3.4l-10.7,6.2l15.3,26.5L277.7,873.7L277.7,873.7z M246.4,856.6l-69.7,40.2
	l-8.9,18.9c-1.1,2.7,0.5,5.5,3.3,5.8l20.9,1.8l69.4-40.1L246.4,856.6z M266.7,918.6l-4.7-8.1l-14.6,8.4c-0.7,0.4-1.7,0.2-2.2-0.6
	l-1.6-2.8c-0.4-0.7-0.2-1.7,0.6-2.2l14.6-8.4l-5.9-10.2l-31.6,18.2l13.6,23.5c1.7,2.9,5.4,3.9,8.3,2.2l21.1-12.2
	C267.3,925.2,268.3,921.5,266.7,918.6L266.7,918.6z"/>
<path class="st0" d="M737.1,732.1l26.6-15.3l-5-8.7l-12.2,7.1c-0.7,0.4-1.4,0.2-1.6-0.4l0,0l-1.3-2.4c-0.4-0.7-0.2-1.4,0.5-1.8
	l12.2-7.1l-3.9-6.7c-1.5-2.6-4.4-3.3-7-1.9l-17.9,10.3c-2.6,1.5-3.3,4.4-1.9,7L737.1,732.1L737.1,732.1z M802.6,730
	c3.8-2.2,5-6.8,2.8-10.6l-5.1-8.8c-2.2-3.8-6.8-5-10.6-2.8l-9.1,5.2l12.9,22.4L802.6,730L802.6,730z M776,715.5l-58.7,33.9l-7.5,16
	c-0.9,2.2,0.4,4.6,2.8,4.9l17.6,1.5l58.7-33.9L776,715.5z M793.2,768l-3.9-6.7l-12.2,7.1c-0.7,0.4-1.4,0.2-1.8-0.5l-1.3-2.3
	c-0.4-0.7-0.2-1.4,0.5-1.8l12.2-7.1l-5-8.7l-26.6,15.2l11.5,19.8c1.5,2.6,4.4,3.3,7,1.9l17.9-10.3
	C793.8,773.6,794.6,770.5,793.2,768L793.2,768z"/>
<path class="st0" d="M129.4,682.4l18.2-67.9c0.8-2.8-0.9-5.4-3.5-6.1l-66.5-17.8c-10.8-2.9-21.7,3.5-24.6,14.2l-17.4,64.7
	c-2.8,10.7,3.6,21.7,14.2,24.5l66.5,17.8c2.8,0.8,5.4-0.9,6.1-3.5l0.8-3.1c0.4-1.5,0.1-3.1-0.8-4.3c-0.1-3.4,2.3-12.3,4.1-15.3
	C127.9,685.2,129,684,129.4,682.4L129.4,682.4z M76.9,619.4c0.2-0.7,0.9-1.1,1.6-0.9l42.9,11.5c0.7,0.2,1.1,0.9,0.9,1.6l-1.1,4.1
	c-0.2,0.7-0.9,1.1-1.6,0.9l-42.9-11.5c-0.7-0.2-1.1-0.9-0.9-1.6C75.8,623.4,76.9,619.4,76.9,619.4z M73.4,632.4
	c0.2-0.7,0.9-1.1,1.6-0.9l42.9,11.5c0.7,0.2,1.1,0.9,0.9,1.6l-1.1,4.1c-0.2,0.7-0.9,1.1-1.6,0.9l-42.9-11.5
	c-0.7-0.2-1.1-0.9-0.9-1.6C72.3,636.5,73.4,632.4,73.4,632.4z M111.2,696.7l-57.7-15.5c-3.5-0.9-5.7-4.6-4.7-8.2
	c1-3.6,4.6-5.7,8.2-4.7l57.7,15.5C113.3,687.1,111.7,693.2,111.2,696.7z"/>
<path class="st0" d="M888,574.2l18.2-67.9c0.8-2.8-0.9-5.4-3.5-6.1l-66.5-17.8c-10.8-2.9-21.7,3.5-24.6,14.2l-17.3,64.7
	c-2.9,10.8,3.5,21.7,14.2,24.6l66.5,17.8c2.8,0.8,5.4-0.9,6.1-3.5l0.9-3.3c0.4-1.5,0.1-3.1-0.8-4.3c-0.1-3.4,2.3-12.3,4.1-15.3
	C886.5,577.1,887.5,575.7,888,574.2L888,574.2z M835.4,511.1c0.2-0.7,0.9-1.1,1.6-0.9l42.9,11.5c0.7,0.2,1.1,0.9,0.9,1.6l-1.1,4.1
	c-0.2,0.7-0.9,1.1-1.6,0.9l-42.9-11.5c-0.7-0.2-1.1-0.9-0.9-1.6L835.4,511.1z M831.9,524.1c0.2-0.7,0.9-1.1,1.6-0.9l42.9,11.5
	c0.7,0.2,1.1,0.9,0.9,1.6l-1.1,4.1c-0.2,0.7-0.9,1.1-1.6,0.9l-42.8-11.6c-0.7-0.2-1.1-0.9-0.9-1.6L831.9,524.1z M869.6,588.4
	l-57.7-15.5c-3.5-0.9-5.7-4.6-4.7-8.2c0.9-3.5,4.6-5.7,8.2-4.7l57.7,15.5C871.9,578.8,870.3,584.9,869.6,588.4z"/>
<path class="st0" d="M538,165.4l18.2-67.9c0.8-2.8-0.9-5.4-3.5-6.1l-66.5-17.8c-10.8-2.9-21.7,3.5-24.6,14.2l-17.3,64.7
	c-2.9,10.8,3.5,21.7,14.2,24.6l66.5,17.8c2.8,0.8,5.4-0.9,6.1-3.5l0.9-3.3c0.4-1.5,0.1-3.1-0.8-4.3c-0.1-3.4,2.3-12.3,4.1-15.3
	C536.4,168.3,537.5,167,538,165.4L538,165.4z M485.4,102.5c0.2-0.7,0.9-1.1,1.6-0.9l42.9,11.5c0.7,0.2,1.1,0.9,0.9,1.6l-1.1,4.1
	c-0.2,0.7-0.9,1.1-1.6,0.9l-42.9-11.5c-0.7-0.2-1.1-0.9-0.9-1.6L485.4,102.5z M482,115.4c0.2-0.7,0.9-1.1,1.6-0.9l42.9,11.5
	c0.7,0.2,1.1,0.9,0.9,1.6l-1.1,4.1c-0.2,0.7-0.9,1.1-1.6,0.9l-42.9-11.5c-0.7-0.2-1.1-0.9-0.9-1.6L482,115.4z M519.7,179.7
	l-57.8-15.5c-3.5-0.9-5.7-4.6-4.7-8.2c1-3.6,4.6-5.7,8.2-4.7l57.7,15.5C521.9,170,520.2,176.3,519.7,179.7z"/>
<path class="st0" d="M857.6,948.5l18.2-67.9c0.8-2.8-0.9-5.4-3.5-6.1l-66.5-17.8c-10.8-2.9-21.7,3.5-24.6,14.2l-17.3,64.7
	c-2.9,10.8,3.5,21.7,14.2,24.6l66.5,17.8c2.8,0.8,5.4-0.9,6.1-3.5l0.9-3.3c0.4-1.5,0.1-3.1-0.8-4.3c-0.1-3.4,2.3-12.3,4.1-15.3
	C856.2,951.2,857.2,950,857.6,948.5L857.6,948.5z M805.1,885.4c0.2-0.7,0.9-1.1,1.6-0.9l42.9,11.5c0.7,0.2,1.1,0.9,0.9,1.6l-1.1,4.1
	c-0.2,0.7-0.9,1.1-1.6,0.9l-42.9-11.5c-0.7-0.2-1.1-0.9-0.9-1.6L805.1,885.4z M801.7,898.3c0.2-0.7,0.9-1.1,1.6-0.9l42.9,11.5
	c0.7,0.2,1.1,0.9,0.9,1.6l-1.1,4.1c-0.2,0.7-0.9,1.1-1.6,0.9L801.5,904c-0.7-0.2-1.1-0.9-0.9-1.6L801.7,898.3z M839.5,962.5
	L781.8,947c-3.5-0.9-5.7-4.6-4.7-8.2c1-3.6,4.6-5.7,8.2-4.7l57.7,15.5C841.6,953.1,840,959.1,839.5,962.5z"/>
<path class="st0" d="M168,161.6l-2.8-4.9c-0.8-1.3-2.5-1.8-3.9-1l-9.8,5.7l-5.7-9.8c-0.8-1.3-2.5-1.8-3.9-1l-4.9,2.8
	c-1.3,0.8-1.8,2.5-1,3.9l5.7,9.8l-9.8,5.7c-1.3,0.8-1.8,2.5-1,3.9l2.8,4.9c0.8,1.3,2.5,1.8,3.9,1l9.8-5.7l5.7,9.8
	c0.8,1.3,2.5,1.8,3.9,1l4.9-2.8c1.3-0.8,1.8-2.5,1-3.9l-5.7-9.8l9.8-5.7C168.3,164.7,168.7,163.1,168,161.6z M176,118.4l-41.1-11
	c-2.5-0.7-5,0.6-6.3,2.7l-28.8,50.4L94.7,140c-0.4-2.1-2.1-3.6-4-4.1l-13.5-3.6c-2.2-0.6-4.5,0.7-5.1,3l-2.2,8.2
	c-0.6,2.2,0.7,4.5,3,5.1l7.3,2l7.4,31.5c1.1,3.8,3.8,6.1,6.9,6.9c2.9,0.8,7.9,0.4,11-4.5l33.3-58.7l32.8,8.8c2.2,0.6,4.5-0.7,5.1-3
	l2.2-8.2C179.5,121.4,178.4,119,176,118.4z"/>
<path class="st0" d="M452.9,617.2l-2.8-4.9c-0.8-1.3-2.5-1.8-3.9-1l-9.8,5.7l-5.7-9.8c-0.8-1.3-2.5-1.8-3.9-1l-4.9,2.8
	c-1.3,0.8-1.8,2.5-1,3.9l5.7,9.8l-9.8,5.7c-1.3,0.8-1.8,2.5-1,3.9l2.8,4.9c0.8,1.3,2.5,1.8,3.9,1l9.8-5.7l5.7,9.8
	c0.8,1.3,2.5,1.8,3.9,1l4.9-2.8c1.3-0.8,1.8-2.5,1-3.9l-5.7-9.8l9.8-5.7C453.3,620.3,453.7,618.8,452.9,617.2z M461,574l-41.1-11
	c-2.5-0.7-5,0.6-6.3,2.7l-28.7,50.6l-5.1-20.5c-0.4-2.1-2.1-3.6-4-4.1l-13.7-3.7c-2.2-0.6-4.5,0.7-5.1,3l-2.2,8.2
	c-0.6,2.2,0.7,4.5,3,5.1l7.3,2l7.6,31.5c1.1,3.8,3.8,6.1,6.9,6.9c2.9,0.8,7.9,0.4,11-4.5l33.3-58.7l32.8,8.8c2.2,0.6,4.5-0.7,5.1-3
	l2.2-8.2C464.5,577,463.3,574.6,461,574z"/>
<path class="st0" d="M679,430.5l-2.8-4.9c-0.8-1.3-2.5-1.8-3.9-1l-9.8,5.7l-5.7-9.8c-0.8-1.3-2.5-1.8-3.9-1l-4.9,2.8
	c-1.3,0.8,4.6,13.7,4.6,13.7l-9.8,5.7c-1.3,0.8-1.8,2.5-1,3.9l2.8,4.9c0.8,1.3,2.5,1.8,3.9,1l9.8-5.7l5.7,9.8c0.8,1.3,2.5,1.8,3.9,1
	l4.9-2.8c1.3-0.8,1.8-2.5,1-3.9l-5.7-9.8l9.8-5.7C679.4,433.6,679.8,432.1,679,430.5z M687,387.3l-41.1-11c-2.5-0.7-5,0.6-6.3,2.7
	l-28.8,50.4l-5.1-20.5c-0.4-2.1-2.1-3.6-4-4.1l-13.7-3.7c-2.2-0.6-4.5,0.7-5.1,3l-2.2,8.2c-0.6,2.2,0.7,4.5,3,5.1l7.3,2l7.6,31.5
	c1.1,3.8,3.8,6.1,6.9,6.9c2.9,0.8,7.9,0.4,11-4.5l33.3-58.7l32.8,8.8c2.2,0.6,4.5-0.7,5.1-3l2.2-8.2
	C690.5,390.3,689.3,387.9,687,387.3z"/>
<path class="st0" d="M558.4,828.1l-2.8-4.9c-0.8-1.3-2.5-1.8-3.9-1l-9.8,5.7l-5.7-9.8c-0.8-1.3-2.5-1.8-3.9-1l-4.9,2.8
	c-1.3,0.8-1.8,2.5-1,3.9l5.7,9.8l-9.8,5.7c-1.3,0.8-1.8,2.5-1,3.9l2.8,4.9c0.8,1.3,2.5,1.8,3.9,1l9.8-5.7l5.7,9.8
	c0.8,1.3,2.5,1.8,3.9,1l4.9-2.8c1.3-0.8,1.8-2.5,1-3.9l-5.7-9.8l9.8-5.7C558.7,831.2,559.1,829.6,558.4,828.1z M566.4,784.9
	l-41.1-11c-2.5-0.7-5,0.6-6.3,2.7l-28.8,50.5l-5-20.6c-0.4-2.1-2.1-3.6-4-4.1l-13.5-3.6c-2.2-0.6-4.5,0.7-5.1,3l-2.2,8.2
	c-0.6,2.2,0.7,4.5,3,5.1l7.3,2l7.6,31.5c1.1,3.8,3.8,6.1,6.9,6.9c2.9,0.8,7.9,0.4,11-4.5l33.3-58.7l32.8,8.8c2.2,0.6,4.5-0.7,5.1-3
	l2.2-8.2C569.9,787.9,568.8,785.5,566.4,784.9z"/>
</svg>
